{"title":"Alesso ft. Tove Lo - Heroes (We Could Be) 2014","uid":11206332,"size":92519503,"categoryP":"video","categoryS":"music_videos","magnet":"?xt=urn:btih:4e34dec11425a273436520d2d8e74ec17634f65b&amp;dn=Alesso+ft.+Tove+Lo+-+Heroes+%28We+Could+Be%29+2014&amp;tr=udp%3A%2F%2Ftracker.openbittorrent.com%3A80&amp;tr=udp%3A%2F%2Fopen.demonii.com%3A1337&amp;tr=udp%3A%2F%2Ftracker.coppersurfer.tk%3A6969&amp;tr=udp%3A%2F%2Fexodus.desync.com%3A6969","seeders":26,"leechers":0,"uploader":"MeRaDil","files":-1,"time":1413223176,"description":"ALESSO ft.TOVE LO - HEROES (WE COULD BE)\n\n\n\nMPEG4 MUSIC VID\n\n &lt;a href=&quot;\nhttp://gifyu.com/images/Alesso.png&quot; rel=&quot;nofollow&quot; target=&quot;_NEW&quot;&gt;\nhttp://gifyu.com/images/Alesso.png&lt;/a&gt;\n\n\nGeneral\nComplete name                            : Alesso ft. Tove Lo - Heroes (We Could Be).mp4\nFormat                                   : MPEG-4\nFormat profile                           : Base Media\nCodec ID                                 : isom\nFile size                                : 88.2 MiB\nDuration                                 : 4mn 54s\nOverall bit rate                         : 2 517 Kbps\nMusicVid name                            : Heroes (We Could Be)\nPerformer                                : Alesso ft. Tove Lo\nGenre                                    : Progressive House\nContentType                              : Music Video\nRecorded date                            : 2014\nCopyright                                : Alesso\nCover                                    : Yes\nRating                                   : ***\nMake                                     : MeRaDil\noday                                     : 10-10-2014 Sweden\nartist url                               : http://alessoworld.com\nlabl                                     : Def Jam\nrelease                                  : Sweden - october 10 - 2014\nPart_ID                                  : Heroes (We Could Be)\n\nVideo\nID                                       : 1\nFormat                                   : AVC\nFormat/Info                              : Advanced Video Codec\nFormat profile                           : &lt;a class=&quot;__cf_email__&quot; href=&quot;/cdn-cgi/l/email-protection&quot; data-cfemail=&quot;470f2e202f070b736977&quot;&gt;[email&amp;#160;protected]&lt;/a&gt;&lt;script cf-hash='f9e31' type=&quot;text/javascript&quot;&gt;\n/* &lt;![CDATA[ */!function(){try{var t=&quot;currentScript&quot;in document?document.currentScript:function(){for(var t=document.getElementsByTagName(&quot;script&quot;),e=t.length;e--;)if(t[e].getAttribute(&quot;cf-hash&quot;))return t[e]}();if(t&amp;&amp;t.previousSibling){var e,r,n,i,c=t.previousSibling,a=c.getAttribute(&quot;data-cfemail&quot;);if(a){for(e=&quot;&quot;,r=parseInt(a.substr(0,2),16),n=2;a.length-n;n+=2)i=parseInt(a.substr(n,2),16)^r,e+=String.fromCharCode(i);e=document.createTextNode(e),c.parentNode.replaceChild(e,c)}}}catch(u){}}();/* ]]&gt; */&lt;/script&gt;\nFormat settings, CABAC                   : Yes\nFormat settings, ReFrames                : 2 frames\nCodec ID                                 : avc1\nCodec ID/Info                            : Advanced Video Coding\nDuration                                 : 4mn 54s\nBit rate                                 : 2 253 Kbps\nWidth                                    : 1 920 pixels\nHeight                                   : 1 080 pixels\nDisplay aspect ratio                     : 16:9\nFrame rate mode                          : Variable\nFrame rate                               : 23.976 fps\nMinimum frame rate                       : 23.974 fps\nMaximum frame rate                       : 23.981 fps\nColor space                              : YUV\nChroma subsampling                       : 4:2:0\nBit depth                                : 8 bits\nScan type                                : Progressive\nBits/(Pixel*Frame)                       : 0.045\nStream size                              : 79.0 MiB (90%)\n\nAudio\nID                                       : 2\nFormat                                   : AAC\nFormat/Info                              : Advanced Audio Codec\nFormat profile                           : LC\nCodec ID                                 : 40\nDuration                                 : 4mn 54s\nBit rate mode                            : Constant\nBit rate                                 : 256 Kbps\nChannel(s)                               : 2 channels\nChannel positions                        : Front: L R\nSampling rate                            : 44.1 KHz\nCompression mode                         : Lossy\nStream size                              : 8.98 MiB (10%)\n\nAlesso * Tove Lo * House * EDM * Sweden\n &lt;a href=&quot;\nhttps://thepiratebay.se/user/MeRaDil&quot; rel=&quot;nofollow&quot; target=&quot;_NEW&quot;&gt;\nhttps://thepiratebay.se/user/MeRaDil&lt;/a&gt;\n\n:)","torrent":{"xt":"urn:btih:4e34dec11425a273436520d2d8e74ec17634f65b","amp;dn":"Alesso+ft.+Tove+Lo+-+Heroes+%28We+Could+Be%29+2014","amp;tr":["udp%3A%2F%2Ftracker.openbittorrent.com%3A80","udp%3A%2F%2Fopen.demonii.com%3A1337","udp%3A%2F%2Ftracker.coppersurfer.tk%3A6969","udp%3A%2F%2Fexodus.desync.com%3A6969"],"infoHash":"4e34dec11425a273436520d2d8e74ec17634f65b","infoHashBuffer":{"type":"Buffer","data":[78,52,222,193,20,37,162,115,67,101,32,210,216,231,78,193,118,52,246,91]},"announce":[],"urlList":[]}}